# xmcd
#
# Track frame offsets:
# 150
# 15617
# 29962
# 48390
# 68710
# 81944
# 97674
# 115520
# 144529
# 161971
# 176935
# 210288
# 224315
# 242811
#
# Disc length: 3483 seconds
#
#
# Revision: 0
# Processed by: cddbd v1.5.2PL0 Copyright (c) Steve Scherf et al.
# Submitted via: FreeRIP 2.945 
#
DISCID=c30d990e
DTITLE=Geraldo Amâncio - 1º Festival de Poesia de Caucaia
DYEAR=2004
DGENRE=Repentista
TTITLE0=A Beleza da criança-Moacir Laurentino e Zé Viola
TTITLE1=É difíciil demais um presidente-Moacir Laurentino e Zé Viola
TTITLE2=O Brasil sente Saudade-Moacir Laurentino e Zé Viola
TTITLE3=As maiores estrelas do Repente-Antonio Jocélio e Zé Maria
TTITLE4=Tudo sei, ninguém me ensina-Antonio Jocélio e Zé Maria
TTITLE5=Só ela pode dar jeito-Antonioi Jocélio e Zé Maria
TTITLE6=O País que sonhei foi transformado-Antonio Jocélio e Zé Maria
TTITLE7=O poder da Natureza-Chico Alves e Lourival Pereira
TTITLE8=Desafio-Chico Alves e Lourival Pereira
TTITLE9=Cantador de vocês-Chico Alves e Lourival Pereira
TTITLE10=Conselho para o bem-Raimundo Adriano e Zé Martins
TTITLE11=Uma troca de olhar apaixonado-Raimundo Adriano e Zé Martins
TTITLE12=Quem fizer caridade-Geraldo Amâncio e Zé Cardoso
TTITLE13=Boi amarrado-Geraldo Amâncio e Zé Cardoso
EXTD=
EXTT0=
EXTT1=
EXTT2=
EXTT3=
EXTT4=
EXTT5=
EXTT6=
EXTT7=
EXTT8=
EXTT9=
EXTT10=
EXTT11=
EXTT12=
EXTT13=
PLAYORDER=
